# xmcd
#
# Track frame offsets:
#	150
#	16162
#	32549
#	46153
#	64200
#	80354
#	96276
#	109746
#	123141
#	139022
#	155101
#	168745
#	182736
#	198330
#
# Disc length: 2853 seconds
#
# Revision: 1
# Processed by: cddbd v1.5.2PL0 Copyright (c) Steve Scherf et al.
# Submitted via: audiograbber 1.83.01
#
DISCID=b50b230e
DTITLE=Various Artist - CDX 629
DYEAR=2016
DGENRE=Country
TTITLE0=High Valley - Make You Mine
TTITLE1=Cam - Mayday
TTITLE2=Eric Church - Record Year
TTITLE3=Vince Gill. ft. Little Big Town - Take Me Down 
TTITLE4=Clare Dunn - Tuxedo
TTITLE5=Gene Watson - Enough For You
TTITLE6=Tim Elliott - Boom
TTITLE7=Aaron Tracy - Chillbilly
TTITLE8=Joy Frost - Free To Believe
TTITLE9=Matt Stillwell - Hey Dad
TTITLE10=McKenna Faith - Obvious
TTITLE11=Allie Louise - Stilettos
TTITLE12=Jimmy Eugene - Suspicion
TTITLE13=Smith and Wesley - Sweet Life
EXTD=
EXTT0=
EXTT1=
EXTT2=
EXTT3=
EXTT4=
EXTT5=
EXTT6=
EXTT7=
EXTT8=
EXTT9=
EXTT10=
EXTT11=
EXTT12=
EXTT13=
PLAYORDER=
